<svg width="570" height="720" xmlns="http://www.w3.org/2000/svg">

 <g>
  <title>background</title>
  <rect fill="none" id="canvas_background" height="602" width="802" y="-1" x="-1"/>
 </g>
 <g>
  <title>Layer 1</title>
  <path id="svg_1" fill="#000000" d="m158.375,1.65625c-3.6193,0.11232 -7.51715,1.44933 -11.9375,4.9375c-10.82696,-4.1763 -21.32709,-5.62719 -30.71875,2.875c-14.49386,-1.88076 -19.21029,2.00074 -22.78125,6.53125c-3.18255,-0.06587 -23.81885,-3.27207 -33.28125,10.84375c-23.78165,-2.81342 -31.29678,13.98788 -22.78125,29.65625c-4.85691,7.51896 -9.8895,14.94723 1.46875,29.28125c-4.01801,7.98351 -1.52743,16.64403 7.9375,27.125c-2.49786,11.2226 2.41208,19.14086 11.21875,25.3125c-1.64709,15.35756 14.08351,24.28743 18.78125,27.46875c1.80368,8.94868 5.56291,17.3927 23.53125,22.0625c2.96323,13.3361 13.76206,15.63906 24.21875,18.4375c-34.56193,20.08954 -64.20067,46.52266 -64,111.375l-5.0625,9.03125c-39.63087,24.10229 -75.2853,101.56626 -19.53125,164.53125c3.64187,19.70838 9.74959,33.86396 15.1875,49.53125c8.13383,63.13058 61.21763,92.69161 75.21875,96.1875c20.51653,15.62812 42.36818,30.45672 71.9375,40.84375c27.87515,28.74946 58.07388,39.7064 88.4375,39.6875c0.44515,-0.00028 0.89853,0.005 1.34375,0c30.36363,0.0189 60.56235,-10.93804 88.4375,-39.6875c29.56932,-10.38703 51.42097,-25.21563 71.9375,-40.84375c14.00112,-3.49589 67.08492,-33.05692 75.21875,-96.1875c5.43791,-15.66729 11.54562,-29.82287 15.1875,-49.53125c55.75404,-62.96499 20.09961,-140.42896 -19.53125,-164.53125l-5.0625,-9.03125c0.20067,-64.85234 -29.43807,-91.28546 -64,-111.375c10.45669,-2.79844 21.25552,-5.1014 24.21875,-18.4375c17.96834,-4.6698 21.72758,-13.11382 23.53125,-22.0625c4.69775,-3.18132 20.42834,-12.11119 18.78125,-27.46875c8.80668,-6.17164 13.71661,-14.0899 11.21875,-25.3125c9.46494,-10.48097 11.9555,-19.14149 7.9375,-27.125c11.35825,-14.33402 6.32566,-21.76229 1.46875,-29.28125c8.51553,-15.66837 1.0004,-32.46967 -22.78125,-29.65625c-9.4624,-14.11582 -30.0987,-10.90962 -33.28125,-10.84375c-3.57096,-4.53051 -8.28739,-8.41201 -22.78125,-6.53125c-9.39166,-8.50219 -19.89179,-7.0513 -30.71875,-2.875c-12.8592,-10.14741 -21.37226,-2.0133 -31.09375,1.0625c-15.57385,-5.08778 -19.13302,1.88091 -26.78125,4.71875c-16.97525,-3.58808 -22.1356,4.22353 -30.28125,12.46875l-9.46875,-0.1875c-25.61054,15.09311 -38.33378,45.8255 -42.84375,61.625c-4.51206,-15.80198 -17.20647,-46.53454 -42.8125,-61.625l-9.46875,0.1875c-8.14565,-8.24522 -13.306,-16.05683 -30.28125,-12.46875c-7.64823,-2.83784 -11.2074,-9.80653 -26.78125,-4.71875c-6.37973,-2.01849 -12.24667,-6.21443 -19.15625,-6z"/>
  <path id="svg_2" fill="#75a928" d="m107.39184,68.05558c67.94767,35.03136 107.44689,63.36897 129.08717,87.50447c-11.08235,44.41759 -68.89638,46.44464 -90.03559,45.19858c4.32842,-2.01474 7.93988,-4.42778 9.22051,-8.13574c-5.30449,-3.76981 -24.11289,-0.39719 -37.24363,-7.77416c5.04407,-1.04499 7.40348,-2.06302 9.76289,-5.78542c-12.40571,-3.9567 -25.76862,-7.36642 -33.62775,-13.92116c4.24126,0.0524 8.20116,0.9488 13.74037,-2.89271c-11.11169,-5.98819 -22.96911,-10.73351 -32.18139,-19.88738c5.74521,-0.14063 11.93945,-0.0568 13.74037,-2.16953c-10.17044,-6.30068 -18.75124,-13.30787 -25.85359,-20.97215c8.03998,0.97052 11.43528,0.13478 13.37878,-1.26556c-7.68779,-7.87419 -17.41756,-14.52319 -22.05691,-24.22644c5.96961,2.05748 11.43125,2.84506 15.36752,-0.18079c-2.61237,-5.89346 -13.80541,-9.36962 -20.24897,-23.14168c6.28436,0.60938 12.94961,1.37111 14.28276,0c-2.92231,-11.88856 -7.92746,-18.57003 -12.8364,-25.492c13.45004,-0.19973 33.82775,0.05234 32.90457,-1.08477l-8.31654,-8.49733c13.13762,-3.53725 26.58065,0.56816 36.33966,3.61588c4.38186,-3.45768 -0.0776,-7.82998 -5.42383,-12.29401c11.16496,1.49064 21.25382,4.05739 30.37345,7.59336c4.87238,-4.39933 -3.16389,-8.79866 -7.05098,-13.19799c17.24936,3.27257 24.55716,7.87068 31.81981,12.47481c5.26935,-5.0508 0.30166,-9.3433 -3.2543,-13.74037c13.00566,4.81705 19.70478,11.03555 26.75756,17.17546c2.39119,-3.22705 6.07494,-5.5924 1.62715,-13.37878c9.23416,5.32273 16.18926,11.59506 21.33374,18.62182c5.71336,-3.63794 3.40387,-8.61302 3.43509,-13.19799c9.59665,7.80652 15.68687,16.11395 23.14168,24.22645c1.50169,-1.09344 2.81661,-4.80171 3.97747,-10.66687c22.89539,22.21181 55.24591,78.15824 8.31654,100.34086c-39.91877,-32.94716 -87.61613,-56.88753 -140.47721,-74.84886z"/>
  <path id="svg_3" fill="#75a928" d="m467.92487,68.05558c-67.94767,35.03136 -107.44689,63.36897 -129.08717,87.50447c11.08235,44.41759 68.89638,46.44464 90.03559,45.19858c-4.32842,-2.01474 -7.93988,-4.42778 -9.22051,-8.13574c5.30449,-3.76981 24.11289,-0.39719 37.24363,-7.77416c-5.04407,-1.04499 -7.40348,-2.06302 -9.76289,-5.78542c12.40571,-3.9567 25.76862,-7.36642 33.62775,-13.92116c-4.24126,0.0524 -8.20116,0.9488 -13.74037,-2.89271c11.11169,-5.98819 22.96911,-10.73351 32.18139,-19.88738c-5.74521,-0.14063 -11.93945,-0.0568 -13.74037,-2.16953c10.17044,-6.30068 18.75124,-13.30787 25.85359,-20.97215c-8.03998,0.97052 -11.43528,0.13478 -13.37878,-1.26556c7.68779,-7.87419 17.41756,-14.52319 22.05691,-24.22644c-5.96961,2.05748 -11.43125,2.84506 -15.36752,-0.18079c2.61237,-5.89346 13.80541,-9.36962 20.24897,-23.14168c-6.28436,0.60938 -12.94961,1.37111 -14.28276,0c2.92231,-11.88856 7.92746,-18.57002 12.8364,-25.492c-13.45004,-0.19973 -33.82775,0.05235 -32.90457,-1.08477l8.31654,-8.49733c-13.13762,-3.53725 -26.58065,0.56816 -36.33966,3.61588c-4.38186,-3.45768 0.0776,-7.82998 5.42383,-12.29401c-11.16496,1.49064 -21.25382,4.05739 -30.37345,7.59336c-4.87238,-4.39933 3.16389,-8.79866 7.05098,-13.19799c-17.24936,3.27257 -24.55716,7.87068 -31.81981,12.47481c-5.26935,-5.0508 -0.30166,-9.3433 3.2543,-13.74037c-13.00566,4.81705 -19.70478,11.03555 -26.75756,17.17546c-2.39119,-3.22705 -6.07494,-5.5924 -1.62715,-13.37878c-9.23416,5.32273 -16.18926,11.59506 -21.33374,18.62182c-5.71336,-3.63794 -3.40387,-8.61302 -3.43509,-13.19799c-9.59665,7.80652 -15.68687,16.11395 -23.14168,24.22645c-1.50169,-1.09344 -2.81661,-4.80171 -3.97747,-10.66687c-22.89539,22.21181 -55.24591,78.15824 -8.31654,100.34086c39.91877,-32.94716 87.61613,-56.88753 140.47721,-74.84886z"/>
  <path id="svg_4" fill="#bc1142" d="m369.94634,520.36104a81.3901,75.05176 0 1 1 -162.78022,0a81.3901,75.05176 0 1 1 162.78022,0z"/>
  <path id="svg_5" fill="#bc1142" d="m241.45402,305.96242a47.48392,40.00604 0 1 1 -94.96783,143.71226a47.48392,40.00604 0 1 1 94.96783,-143.71226z"/>
  <path id="svg_6" fill="#bc1142" d="m332.4862,301.96242a-47.48392,40.00604 0 1 1 94.96783,143.71226a-47.48392,40.00604 0 1 1 -94.96783,-143.71226z"/>
  <path id="svg_7" fill="#bc1142" d="m72.91025,342.0878c36.41422,-9.75692 12.2916,150.63651 -17.33338,137.47577c-32.58677,-26.21268 -43.08307,-102.97543 17.33338,-137.47577z"/>
  <path id="svg_8" fill="#bc1142" d="m493.67828,340.0878c-36.41422,-9.75692 -12.2916,150.63651 17.33338,137.47577c32.58677,-26.21268 43.08307,-102.97543 -17.33338,-137.47577z"/>
  <path id="svg_9" fill="#bc1142" d="m369.97158,220.6534c62.83486,-10.61013 115.11594,26.72229 113.01138,94.85796c-2.06693,26.12112 -136.15872,-90.96907 -113.01138,-94.85796z"/>
  <path id="svg_10" fill="#bc1142" d="m196.35975,218.6534c-62.83486,-10.61013 -115.11594,26.72229 -113.01138,94.85796c2.06693,26.12112 136.15872,-90.96907 113.01138,-94.85796z"/>
  <path id="svg_11" fill="#bc1142" d="m286.61932,202.75568c-37.50259,-0.97548 -73.49548,27.83418 -73.58158,44.54443c-0.10462,20.30426 29.6512,41.09266 73.83726,41.62035c45.12305,0.32321 73.91561,-16.64049 74.0611,-37.59409c0.16484,-23.73996 -41.03879,-48.93744 -74.31678,-48.57069z"/>
  <path id="svg_12" fill="#bc1142" d="m288.90937,619.11675c32.69744,-1.42711 76.57083,10.53196 76.6568,26.39598c0.5427,15.4052 -39.78969,50.21055 -78.82634,49.53765c-40.42729,1.74391 -80.06908,-33.11559 -79.54951,-45.19859c-0.60506,-17.71593 49.226,-31.54796 81.71905,-30.73504z"/>
  <path id="svg_13" fill="#bc1142" d="m168.13874,525.10369c23.2791,28.04573 33.89066,77.31899 14.46355,91.84353c-18.37917,11.08784 -63.01228,6.52162 -94.73624,-39.05157c-21.39505,-38.24168 -18.63758,-77.15663 -3.61588,-88.58924c22.46442,-13.68429 57.17342,4.79902 83.88857,35.79728z"/>
  <path id="svg_14" fill="#bc1142" d="m405.0209,516.21177c-25.18682,29.50165 -39.21227,83.30951 -20.83785,100.6428c17.56828,13.46361 64.7292,11.58162 99.56566,-36.75574c25.29599,-32.46471 16.82013,-86.68225 2.37077,-101.07511c-21.46408,-16.60213 -52.27691,4.64489 -81.09858,37.18805z"/>
 </g>
</svg>